<svg width="1687" height="1523" viewBox="0 0 1687 1523" fill="none" xmlns="http://www.w3.org/2000/svg">
<path d="M1684.4 735C1685.8 734.2 1686.7 732.6 1686.7 731V610C1686.7 608.3 1685.8 606.8 1684.4 606L1581.9 546.8V431L1684.4 371.8C1685.8 371 1686.7 369.4 1686.7 367.8V246.7C1686.7 245 1685.8 243.5 1684.4 242.7L1581.9 183.5V65.2C1581.9 63.5 1581 62 1579.6 61.2L1474.7 0.6C1473.3 -0.2 1471.5 -0.2 1470.1 0.6L1367.6 59.8L1265 0.6C1263.6 -0.2 1261.8 -0.2 1260.4 0.6L1157.9 59.8L1055.3 0.6C1053.9 -0.2 1052.1 -0.2 1050.7 0.6L948.2 59.8L845.7 0.6C844.3 -0.2 842.5 -0.2 841.1 0.6L738.6 59.8L636 0.6C634.6 -0.2 632.8 -0.2 631.4 0.6L528.9 59.8L426.3 0.6C424.9 -0.2 423.1 -0.2 421.7 0.6L319.2 59.8L216.6 0.6C215.2 -0.2 213.4 -0.2 212 0.6L107.2 61.1C105.8 61.9 104.9 63.5 104.9 65.1V183.5L2.3 242.7C0.9 243.5 0 245.1 0 246.7V367.8C0 369.5 0.9 371 2.3 371.8L104.9 431V546.7L2.4 605.9C1 606.7 0.1 608.3 0.1 609.9V730.9C0.1 732.6 1 734.1 2.4 734.9L104.9 794.1V909.8L2.4 969C1 969.8 0.1 971.4 0.1 973V1094C0.1 1095.7 1 1097.2 2.4 1098L104.9 1157.2V1272.9L2.4 1332.1C1 1332.9 0.1 1334.5 0.1 1336.1V1457.2C0.1 1458.9 1 1460.4 2.4 1461.2L107.2 1521.7C107.9 1522.1 108.7 1522.3 109.5 1522.3C110.3 1522.3 111.1 1522.1 111.8 1521.7L214.3 1462.5L316.8 1521.7C317.5 1522.1 318.3 1522.3 319.1 1522.3C319.9 1522.3 320.7 1522.1 321.4 1521.7L423.9 1462.5L526.4 1521.7C527.1 1522.1 527.9 1522.3 528.7 1522.3C529.5 1522.3 530.3 1522.1 531 1521.7L633.5 1462.5L736 1521.7C736.7 1522.1 737.5 1522.3 738.3 1522.3C739.1 1522.3 739.9 1522.1 740.6 1521.7L843.1 1462.5L945.6 1521.7C946.3 1522.1 947.1 1522.3 947.9 1522.3C948.7 1522.3 949.5 1522.1 950.2 1521.7L1052.7 1462.5L1155.2 1521.7C1155.9 1522.1 1156.7 1522.3 1157.5 1522.3C1158.3 1522.3 1159.1 1522.1 1159.8 1521.7L1262.3 1462.5L1364.8 1521.7C1365.5 1522.1 1366.3 1522.3 1367.1 1522.3C1367.9 1522.3 1368.7 1522.1 1369.4 1521.7L1471.9 1462.5L1574.4 1521.7C1575.1 1522.1 1575.9 1522.3 1576.7 1522.3C1577.5 1522.3 1578.3 1522.1 1579 1521.7L1683.9 1461.2C1685.3 1460.4 1686.2 1458.8 1686.2 1457.2V1336.1C1686.2 1334.4 1685.3 1332.9 1683.9 1332.1L1581.4 1272.9V1157.2L1683.9 1098C1685.3 1097.2 1686.2 1095.6 1686.2 1094V973C1686.2 971.3 1685.3 969.8 1683.9 969L1581.4 909.8V794.1L1684.4 735ZM1362.9 794.1V909.8L1312.8 938.7L1262.7 967.6L1261.3 966.8L1162.5 909.8V794.1L1259.1 738.3L1262.7 736.2L1312.8 765.1L1362.9 794.1ZM1362.9 1157.3V1273L1262.7 1330.9L1162.5 1273V1157.3L1262.7 1099.4L1312.8 1128.3L1362.9 1157.3ZM1153.2 1273L1053 1330.9L952.8 1273V1157.3L1053 1099.4L1153.2 1157.3V1273ZM733.9 1273L633.7 1330.9L533.5 1273V1157.3L583.6 1128.4L633.7 1099.5L733.9 1157.4V1273ZM524.2 1273L424 1330.9L323.8 1273V1157.3L373.9 1128.4L424 1099.5L524.2 1157.4V1273ZM314.5 1273L214.3 1330.9L114.1 1273V1157.3L214.3 1099.4L314.5 1157.3V1273ZM219 249.4L319.2 191.6L419.4 249.4V365.1L319.2 423L269.1 394.1L219 365.2V249.4ZM1048.4 365.1L998.3 394L948.2 422.9L944.9 421L848 365.1V249.4L948.2 191.6L1048.4 249.4V365.1ZM1267.3 249.4L1367.5 191.6L1467.7 249.4V365.1L1367.5 422.9L1267.3 365V249.4ZM319.2 786.1L219 728.2V612.6L269.1 583.7L319.2 554.8L419.4 612.6V728.3L369.3 757.2L319.2 786.1ZM1157.9 554.7L1208 583.6L1258.1 612.5V728.2L1243.3 736.7L1157.9 786L1057.7 728.1V612.6L1107.8 583.7L1157.9 554.7ZM1157.9 1149.3L1057.7 1091.4V975.7L1157.9 917.8L1258.1 975.7V1091.4L1157.9 1149.3ZM947.3 1148.8L848 1091.5V975.8L898.1 946.9L948.2 918L1048.4 975.9V1091.6L948.2 1149.5L947.3 1148.8ZM843.3 967.7L793.2 938.8L743.1 909.9V794.2L843.3 736.3L943.5 794.1V909.8L893.4 938.7L843.3 967.7ZM638.3 728.3V612.6L738.5 554.7L788.6 583.6L838.7 612.5V728.2L739.4 785.5L738.5 786L688.4 757.1L638.3 728.3ZM1053 736.3L1153.2 794.2V909.9L1053 967.8L1051.6 967L952.8 910V794.3L1049.4 738.5L1053 736.3ZM943.6 431V546.7L843.4 604.6L743.2 546.7V431L843.4 373.2L943.6 431ZM733.9 431V546.7L633.7 604.6L533.5 546.7V431L633.7 373.1L733.9 431ZM524.2 431V546.7L424 604.6L323.8 546.7V431L424 373.1L524.2 431ZM428.6 728.3V612.6L528.8 554.7L629 612.6V728.3L578.9 757.2L528.8 786.1L478.7 757.2L428.6 728.3ZM533.5 909.9V794.2L583.6 765.3L633.7 736.4L733.9 794.3V910L633.7 967.9L583.6 939L533.5 909.9ZM638.3 975.7L738.5 917.8L788.6 946.7L838.7 975.6V1091.3L738.5 1149.2L638.3 1091.3V975.7ZM1048.4 612.6V728.3L1033.6 736.8L948.2 786.1L848 728.2V612.6L948.2 554.7L998.3 583.6L1048.4 612.6ZM528.8 1149.3L428.6 1091.4V975.7L528.8 917.8L578.9 946.7L629 975.6V1091.3L578.9 1120.2L528.8 1149.3ZM749.3 416.7L738.5 422.9L638.3 365V249.4L738.5 191.6L838.7 249.4V365.1L749.3 416.7ZM629 365.1L528.8 423L428.6 365.1V249.4L528.8 191.6L629 249.4V365.1ZM314.5 431V546.7L214.3 604.6L114.1 546.7V431L214.3 373.1L264.4 402L314.5 431ZM323.8 909.9V794.2L373.9 765.3L424 736.4L524.2 794.3V910L424 967.9L373.9 939L323.8 909.9ZM743.1 1157.3L843.3 1099.4L943.5 1157.3V1273L843.3 1330.9L743.1 1273V1157.3ZM1572.6 546.7L1472.4 604.6L1372.2 546.7V431L1472.4 373.2L1572.6 431.1V546.7ZM1262.7 373.1L1362.9 431V546.7L1262.7 604.6L1162.5 546.7V431L1212.6 402.1L1262.7 373.1ZM1153.2 431V546.7L1053 604.6L952.8 546.7V431L1002.9 402.1L1053 373.2L1103.1 402.1L1153.2 431ZM319.2 917.9L369.3 946.8L419.4 975.7V1091.4L369.3 1120.3L319.2 1149.2L219 1091.3V975.6L269.1 946.7L319.2 917.9ZM1572.6 1273L1472.4 1330.9L1372.2 1273V1157.3L1472.4 1099.4L1572.6 1157.3V1273ZM1467.7 975.7V1091.4L1367.5 1149.3L1317.4 1120.4L1267.3 1091.5V975.8L1317.4 946.9L1367.5 918L1369.6 919.2L1467.7 975.7ZM1367.5 786.1L1317.4 757.2L1267.3 728.3V612.6L1367.5 554.7L1467.7 612.6V728.3L1371.7 783.7L1367.5 786.1ZM1157.9 191.6L1258.1 249.4V365.1L1208 394L1157.9 422.9L1107.8 394L1057.7 365.1V249.4L1065.9 244.7L1157.9 191.6ZM114.1 909.9V794.2L213.4 736.9L214.3 736.4L314.5 794.3V910L264.4 938.9L214.3 967.8L164.2 938.9L114.1 909.9ZM1472.4 967.7L1387.8 918.9L1372.2 909.9V794.2L1386.6 785.9L1472.4 736.4L1572.6 794.3V910L1522.5 938.9L1472.4 967.7ZM1677.4 728.3L1577.2 786.2L1477 728.3V612.6L1577.2 554.7L1677.4 612.6V728.3ZM1677.4 365.1L1577.2 422.9L1477 365.1V249.4L1577.2 191.6L1677.4 249.4V365.1ZM1472.4 9.99999L1572.6 67.9V183.6L1472.4 241.4L1372.2 183.6V67.8L1472.4 9.99999ZM1262.7 9.99999L1362.9 67.9V183.6L1262.7 241.4L1162.5 183.6V67.8L1262.7 9.99999ZM1053 9.99999L1153.2 67.9V183.6L1064.6 234.7L1053 241.4L952.8 183.6V67.8L1053 9.99999ZM843.3 9.99999L943.5 67.9V183.6L843.3 241.4L743.1 183.6V67.8L843.3 9.99999ZM633.7 9.99999L733.9 67.8V183.5L633.7 241.3L533.5 183.5V67.8L633.7 9.99999ZM424 9.99999L524.2 67.9V183.6L424 241.4L323.8 183.6V67.8L424 9.99999ZM214.3 9.99999L314.5 67.9V183.6L214.3 241.4L114.1 183.6V67.8L214.3 9.99999ZM9.3 249.4L109.5 191.6L209.7 249.4V365.1L109.5 423L9.3 365.1V249.4ZM9.3 612.6L109.5 554.7L209.7 612.6V728.3L109.5 786.2L9.3 728.3V612.6ZM9.3 975.7L109.5 917.8L159.6 946.7L209.7 975.6V1091.3L109.5 1149.2L9.3 1091.4V975.7ZM109.5 1512.5L9.3 1454.6V1338.9L109.5 1281L209.7 1338.9V1454.6L109.5 1512.5ZM319.2 1512.5L219 1454.6V1338.9L319.2 1281L419.4 1338.9V1454.6L319.2 1512.5ZM528.8 1512.5L428.6 1454.6V1338.9L528.8 1281L629 1338.9V1454.6L528.8 1512.5ZM738.5 1512.5L638.3 1454.6V1338.9L738.5 1281L838.7 1338.9V1454.6L738.5 1512.5ZM948.2 1512.5L848 1454.6V1338.9L948.2 1281L1048.4 1338.9V1454.6L948.2 1512.5ZM1157.9 1512.5L1057.7 1454.6V1338.9L1157.9 1281L1258.1 1338.9V1454.6L1157.9 1512.5ZM1367.5 1512.5L1267.3 1454.6V1338.9L1367.5 1281L1467.7 1338.9V1454.6L1367.5 1512.5ZM1677.4 1454.6L1577.2 1512.5L1477 1454.6V1338.9L1577.2 1281L1677.4 1338.9V1454.6ZM1677.4 1091.4L1577.2 1149.3L1477 1091.4V975.7L1527.1 946.8L1577.2 917.9L1677.4 975.8V1091.4Z" fill="url(#paint0_linear)"/>
<defs>
<linearGradient id="paint0_linear" x1="843.357" y1="-0.0027" x2="843.357" y2="1522.45" gradientUnits="userSpaceOnUse">
<stop stop-color="white" stop-opacity="0.7"/>
<stop offset="1" stop-color="white" stop-opacity="0"/>
</linearGradient>
</defs>
</svg>
