<svg width="457" height="238" viewBox="0 0 457 238" fill="none" xmlns="http://www.w3.org/2000/svg">
<path d="M75.2652 28.0384L63.4558 21.2144L51.6465 28.0266V41.6745L63.4558 48.4867L75.2652 41.6745V28.0384Z" fill="url(#paint0_radial)"/>
<path d="M99.8267 28.0384L88.0174 21.2144L76.208 28.0266V41.6745L88.0174 48.4867L99.8267 41.6745V28.0384Z" fill="url(#paint1_radial)"/>
<path d="M124.388 28.0384L112.579 21.2144L100.77 28.0266V41.6745L112.579 48.4867L124.388 41.6745V28.0384Z" fill="url(#paint2_radial)"/>
<path d="M148.95 28.0384L137.141 21.2144L125.331 28.0266V41.6745L137.141 48.4867L148.95 41.6745V28.0384Z" fill="url(#paint3_radial)"/>
<path d="M87.6402 6.82397L75.8309 0L64.0215 6.81219V20.4601L75.8309 27.2723L87.6402 20.4601V6.82397Z" fill="url(#paint4_radial)"/>
<path d="M112.202 6.82397L100.392 0L88.5831 6.81219V20.4601L100.392 27.2723L112.202 20.4601V6.82397Z" fill="url(#paint5_radial)"/>
<path d="M136.763 6.82397L124.954 0L113.145 6.81219V20.4601L124.954 27.2723L136.763 20.4601V6.82397Z" fill="url(#paint6_radial)"/>
<path d="M63.0787 49.2528L51.2693 42.4288L39.46 49.241V62.889L51.2693 69.7011L63.0787 62.889V49.2528Z" fill="url(#paint7_radial)"/>
<path d="M87.6402 49.2528L75.8309 42.4288L64.0215 49.241V62.889L75.8309 69.7011L87.6402 62.889V49.2528Z" fill="url(#paint8_radial)"/>
<path d="M136.763 49.2528L124.954 42.4288L113.145 49.241V62.889L124.954 69.7011L136.763 62.889V49.2528Z" fill="url(#paint9_radial)"/>
<path d="M161.325 49.2528L149.516 42.4288L137.706 49.241V62.889L149.516 69.7011L161.325 62.889V49.2528Z" fill="url(#paint10_radial)"/>
<path d="M75.2652 70.4672L63.4558 63.6432L51.6465 70.4554V84.1034L63.4558 90.9156L75.2652 84.1034V70.4672Z" fill="url(#paint11_radial)"/>
<path d="M99.8267 70.4672L88.0174 63.6432L76.208 70.4554V84.1034L88.0174 90.9156L99.8267 84.1034V70.4672Z" fill="url(#paint12_radial)"/>
<path d="M124.388 70.4672L112.579 63.6432L100.77 70.4554V84.1034L112.579 90.9156L124.388 84.1034V70.4672Z" fill="url(#paint13_radial)"/>
<path d="M148.95 70.4672L137.141 63.6432L125.331 70.4554V84.1034L137.141 90.9156L148.95 84.1034V70.4672Z" fill="url(#paint14_radial)"/>
<path d="M87.6402 91.6816L75.8309 84.8577L64.0215 91.6699V105.318L75.8309 112.13L87.6402 105.318V91.6816Z" fill="url(#paint15_radial)"/>
<path d="M112.202 91.6816L100.392 84.8577L88.5831 91.6699V105.318L100.392 112.13L112.202 105.318V91.6816Z" fill="url(#paint16_radial)"/>
<path d="M136.763 91.6816L124.954 84.8577L113.145 91.6699V105.318L124.954 112.13L136.763 105.318V91.6816Z" fill="url(#paint17_radial)"/>
<path d="M141.085 142.431L127.663 134.676L114.242 142.418V157.929L127.663 165.671L141.085 157.929V142.431Z" fill="url(#paint18_radial)"/>
<path d="M168.998 142.431L155.577 134.676L142.156 142.418V157.929L155.577 165.671L168.998 157.929V142.431Z" fill="url(#paint19_radial)"/>
<path d="M196.912 142.431L183.491 134.676L170.07 142.418V157.929L183.491 165.671L196.912 157.929V142.431Z" fill="url(#paint20_radial)"/>
<path d="M224.826 142.431L211.405 134.676L197.984 142.418V157.929L211.405 165.671L224.826 157.929V142.431Z" fill="url(#paint21_radial)"/>
<path d="M155.149 118.322L141.727 110.566L128.306 118.308V133.819L141.727 141.561L155.149 133.819V118.322Z" fill="url(#paint22_radial)"/>
<path d="M183.062 118.322L169.641 110.566L156.22 118.308V133.819L169.641 141.561L183.062 133.819V118.322Z" fill="url(#paint23_radial)"/>
<path d="M210.976 118.322L197.555 110.566L184.134 118.308V133.819L197.555 141.561L210.976 133.819V118.322Z" fill="url(#paint24_radial)"/>
<path d="M127.235 166.541L113.814 158.786L100.393 166.528V182.039L113.814 189.78L127.235 182.039V166.541Z" fill="url(#paint25_radial)"/>
<path d="M155.149 166.541L141.727 158.786L128.306 166.528V182.039L141.727 189.78L155.149 182.039V166.541Z" fill="url(#paint26_radial)"/>
<path d="M210.976 166.541L197.555 158.786L184.134 166.528V182.039L197.555 189.78L210.976 182.039V166.541Z" fill="url(#paint27_radial)"/>
<path d="M238.89 166.541L225.469 158.786L212.048 166.528V182.039L225.469 189.78L238.89 182.039V166.541Z" fill="url(#paint28_radial)"/>
<path d="M141.085 190.651L127.663 182.896L114.242 190.638V206.148L127.663 213.89L141.085 206.148V190.651Z" fill="url(#paint29_radial)"/>
<path d="M168.998 190.651L155.577 182.896L142.156 190.638V206.148L155.577 213.89L168.998 206.148V190.651Z" fill="url(#paint30_radial)"/>
<path d="M196.912 190.651L183.491 182.896L170.07 190.638V206.148L183.491 213.89L196.912 206.148V190.651Z" fill="url(#paint31_radial)"/>
<path d="M224.826 190.651L211.405 182.896L197.984 190.638V206.148L211.405 213.89L224.826 206.148V190.651Z" fill="url(#paint32_radial)"/>
<path d="M155.149 214.761L141.727 207.006L128.306 214.747V230.258L141.727 238L155.149 230.258V214.761Z" fill="url(#paint33_radial)"/>
<path d="M183.062 214.761L169.641 207.006L156.22 214.747V230.258L169.641 238L183.062 230.258V214.761Z" fill="url(#paint34_radial)"/>
<path d="M210.976 214.761L197.555 207.006L184.134 214.747V230.258L197.555 238L210.976 230.258V214.761Z" fill="url(#paint35_radial)"/>
<path d="M315.888 123.435L299.799 114.138L283.71 123.419V142.012L299.799 151.293L315.888 142.012V123.435Z" fill="url(#paint36_radial)"/>
<path d="M349.35 123.435L333.261 114.138L317.173 123.419V142.012L333.261 151.293L349.35 142.012V123.435Z" fill="url(#paint37_radial)"/>
<path d="M382.813 123.435L366.724 114.138L350.635 123.419V142.012L366.724 151.293L382.813 142.012V123.435Z" fill="url(#paint38_radial)"/>
<path d="M416.275 123.435L400.186 114.138L384.097 123.419V142.012L400.186 151.293L416.275 142.012V123.435Z" fill="url(#paint39_radial)"/>
<path d="M332.748 94.5325L316.659 85.2356L300.57 94.5164V113.11L316.659 122.391L332.748 113.11V94.5325Z" fill="url(#paint40_radial)"/>
<path d="M366.21 94.5325L350.121 85.2356L334.032 94.5164V113.11L350.121 122.391L366.21 113.11V94.5325Z" fill="url(#paint41_radial)"/>
<path d="M399.672 94.5325L383.583 85.2356L367.495 94.5164V113.11L383.583 122.391L399.672 113.11V94.5325Z" fill="url(#paint42_radial)"/>
<path d="M299.285 152.337L283.196 143.04L267.107 152.321V170.915L283.196 180.196L299.285 170.915V152.337Z" fill="url(#paint43_radial)"/>
<path d="M332.748 152.337L316.659 143.04L300.57 152.321V170.915L316.659 180.196L332.748 170.915V152.337Z" fill="url(#paint44_radial)"/>
<path d="M399.672 152.337L383.583 143.04L367.495 152.321V170.915L383.583 180.196L399.672 170.915V152.337Z" fill="url(#paint45_radial)"/>
<path d="M433.135 152.337L417.046 143.04L400.957 152.321V170.915L417.046 180.196L433.135 170.915V152.337Z" fill="url(#paint46_radial)"/>
<path d="M315.888 181.239L299.799 171.942L283.71 181.223V199.817L299.799 209.098L315.888 199.817V181.239Z" fill="url(#paint47_radial)"/>
<path d="M349.35 181.239L333.261 171.942L317.173 181.223V199.817L333.261 209.098L349.35 199.817V181.239Z" fill="url(#paint48_radial)"/>
<path d="M382.813 181.239L366.724 171.942L350.635 181.223V199.817L366.724 209.098L382.813 199.817V181.239Z" fill="url(#paint49_radial)"/>
<path d="M416.275 181.239L400.186 171.942L384.097 181.223V199.817L400.186 209.098L416.275 199.817V181.239Z" fill="url(#paint50_radial)"/>
<path d="M332.748 210.141L316.659 200.845L300.57 210.125V228.719L316.659 238L332.748 228.719V210.141Z" fill="url(#paint51_radial)"/>
<path d="M366.21 210.141L350.121 200.845L334.032 210.125V228.719L350.121 238L366.21 228.719V210.141Z" fill="url(#paint52_radial)"/>
<path d="M399.672 210.141L383.583 200.845L367.495 210.125V228.719L383.583 238L399.672 228.719V210.141Z" fill="url(#paint53_radial)"/>
<defs>
<radialGradient id="paint0_radial" cx="0" cy="0" r="1" gradientUnits="userSpaceOnUse" gradientTransform="translate(100.392 56.065) rotate(59.6966) scale(64.9377 222.123)">
<stop stop-color="white" stop-opacity="0.7"/>
<stop offset="1" stop-color="white" stop-opacity="0"/>
</radialGradient>
<radialGradient id="paint1_radial" cx="0" cy="0" r="1" gradientUnits="userSpaceOnUse" gradientTransform="translate(100.392 56.065) rotate(59.6966) scale(64.9377 222.123)">
<stop stop-color="white" stop-opacity="0.7"/>
<stop offset="1" stop-color="white" stop-opacity="0"/>
</radialGradient>
<radialGradient id="paint2_radial" cx="0" cy="0" r="1" gradientUnits="userSpaceOnUse" gradientTransform="translate(100.392 56.065) rotate(59.6966) scale(64.9377 222.123)">
<stop stop-color="white" stop-opacity="0.7"/>
<stop offset="1" stop-color="white" stop-opacity="0"/>
</radialGradient>
<radialGradient id="paint3_radial" cx="0" cy="0" r="1" gradientUnits="userSpaceOnUse" gradientTransform="translate(100.392 56.065) rotate(59.6966) scale(64.9377 222.123)">
<stop stop-color="white" stop-opacity="0.7"/>
<stop offset="1" stop-color="white" stop-opacity="0"/>
</radialGradient>
<radialGradient id="paint4_radial" cx="0" cy="0" r="1" gradientUnits="userSpaceOnUse" gradientTransform="translate(100.392 56.065) rotate(59.6966) scale(64.9377 222.123)">
<stop stop-color="white" stop-opacity="0.7"/>
<stop offset="1" stop-color="white" stop-opacity="0"/>
</radialGradient>
<radialGradient id="paint5_radial" cx="0" cy="0" r="1" gradientUnits="userSpaceOnUse" gradientTransform="translate(100.392 56.065) rotate(59.6966) scale(64.9377 222.123)">
<stop stop-color="white" stop-opacity="0.7"/>
<stop offset="1" stop-color="white" stop-opacity="0"/>
</radialGradient>
<radialGradient id="paint6_radial" cx="0" cy="0" r="1" gradientUnits="userSpaceOnUse" gradientTransform="translate(100.392 56.065) rotate(59.6966) scale(64.9377 222.123)">
<stop stop-color="white" stop-opacity="0.7"/>
<stop offset="1" stop-color="white" stop-opacity="0"/>
</radialGradient>
<radialGradient id="paint7_radial" cx="0" cy="0" r="1" gradientUnits="userSpaceOnUse" gradientTransform="translate(100.392 56.065) rotate(59.6966) scale(64.9377 222.123)">
<stop stop-color="white" stop-opacity="0.7"/>
<stop offset="1" stop-color="white" stop-opacity="0"/>
</radialGradient>
<radialGradient id="paint8_radial" cx="0" cy="0" r="1" gradientUnits="userSpaceOnUse" gradientTransform="translate(100.392 56.065) rotate(59.6966) scale(64.9377 222.123)">
<stop stop-color="white" stop-opacity="0.7"/>
<stop offset="1" stop-color="white" stop-opacity="0"/>
</radialGradient>
<radialGradient id="paint9_radial" cx="0" cy="0" r="1" gradientUnits="userSpaceOnUse" gradientTransform="translate(100.392 56.065) rotate(59.6966) scale(64.9377 222.123)">
<stop stop-color="white" stop-opacity="0.7"/>
<stop offset="1" stop-color="white" stop-opacity="0"/>
</radialGradient>
<radialGradient id="paint10_radial" cx="0" cy="0" r="1" gradientUnits="userSpaceOnUse" gradientTransform="translate(100.392 56.065) rotate(59.6966) scale(64.9377 222.123)">
<stop stop-color="white" stop-opacity="0.7"/>
<stop offset="1" stop-color="white" stop-opacity="0"/>
</radialGradient>
<radialGradient id="paint11_radial" cx="0" cy="0" r="1" gradientUnits="userSpaceOnUse" gradientTransform="translate(100.392 56.065) rotate(59.6966) scale(64.9377 222.123)">
<stop stop-color="white" stop-opacity="0.7"/>
<stop offset="1" stop-color="white" stop-opacity="0"/>
</radialGradient>
<radialGradient id="paint12_radial" cx="0" cy="0" r="1" gradientUnits="userSpaceOnUse" gradientTransform="translate(100.392 56.065) rotate(59.6966) scale(64.9377 222.123)">
<stop stop-color="white" stop-opacity="0.7"/>
<stop offset="1" stop-color="white" stop-opacity="0"/>
</radialGradient>
<radialGradient id="paint13_radial" cx="0" cy="0" r="1" gradientUnits="userSpaceOnUse" gradientTransform="translate(100.392 56.065) rotate(59.6966) scale(64.9377 222.123)">
<stop stop-color="white" stop-opacity="0.7"/>
<stop offset="1" stop-color="white" stop-opacity="0"/>
</radialGradient>
<radialGradient id="paint14_radial" cx="0" cy="0" r="1" gradientUnits="userSpaceOnUse" gradientTransform="translate(100.392 56.065) rotate(59.6966) scale(64.9377 222.123)">
<stop stop-color="white" stop-opacity="0.7"/>
<stop offset="1" stop-color="white" stop-opacity="0"/>
</radialGradient>
<radialGradient id="paint15_radial" cx="0" cy="0" r="1" gradientUnits="userSpaceOnUse" gradientTransform="translate(100.392 56.065) rotate(59.6966) scale(64.9377 222.123)">
<stop stop-color="white" stop-opacity="0.7"/>
<stop offset="1" stop-color="white" stop-opacity="0"/>
</radialGradient>
<radialGradient id="paint16_radial" cx="0" cy="0" r="1" gradientUnits="userSpaceOnUse" gradientTransform="translate(100.392 56.065) rotate(59.6966) scale(64.9377 222.123)">
<stop stop-color="white" stop-opacity="0.7"/>
<stop offset="1" stop-color="white" stop-opacity="0"/>
</radialGradient>
<radialGradient id="paint17_radial" cx="0" cy="0" r="1" gradientUnits="userSpaceOnUse" gradientTransform="translate(100.392 56.065) rotate(59.6966) scale(64.9377 222.123)">
<stop stop-color="white" stop-opacity="0.7"/>
<stop offset="1" stop-color="white" stop-opacity="0"/>
</radialGradient>
<radialGradient id="paint18_radial" cx="0" cy="0" r="1" gradientUnits="userSpaceOnUse" gradientTransform="translate(169.641 174.283) rotate(59.6966) scale(73.8005 252.439)">
<stop stop-color="white" stop-opacity="0.7"/>
<stop offset="1" stop-color="white" stop-opacity="0"/>
</radialGradient>
<radialGradient id="paint19_radial" cx="0" cy="0" r="1" gradientUnits="userSpaceOnUse" gradientTransform="translate(169.641 174.283) rotate(59.6966) scale(73.8005 252.439)">
<stop stop-color="white" stop-opacity="0.7"/>
<stop offset="1" stop-color="white" stop-opacity="0"/>
</radialGradient>
<radialGradient id="paint20_radial" cx="0" cy="0" r="1" gradientUnits="userSpaceOnUse" gradientTransform="translate(169.641 174.283) rotate(59.6966) scale(73.8005 252.439)">
<stop stop-color="white" stop-opacity="0.7"/>
<stop offset="1" stop-color="white" stop-opacity="0"/>
</radialGradient>
<radialGradient id="paint21_radial" cx="0" cy="0" r="1" gradientUnits="userSpaceOnUse" gradientTransform="translate(169.641 174.283) rotate(59.6966) scale(73.8005 252.439)">
<stop stop-color="white" stop-opacity="0.7"/>
<stop offset="1" stop-color="white" stop-opacity="0"/>
</radialGradient>
<radialGradient id="paint22_radial" cx="0" cy="0" r="1" gradientUnits="userSpaceOnUse" gradientTransform="translate(169.641 174.283) rotate(59.6966) scale(73.8005 252.439)">
<stop stop-color="white" stop-opacity="0.7"/>
<stop offset="1" stop-color="white" stop-opacity="0"/>
</radialGradient>
<radialGradient id="paint23_radial" cx="0" cy="0" r="1" gradientUnits="userSpaceOnUse" gradientTransform="translate(169.641 174.283) rotate(59.6966) scale(73.8005 252.439)">
<stop stop-color="white" stop-opacity="0.7"/>
<stop offset="1" stop-color="white" stop-opacity="0"/>
</radialGradient>
<radialGradient id="paint24_radial" cx="0" cy="0" r="1" gradientUnits="userSpaceOnUse" gradientTransform="translate(169.641 174.283) rotate(59.6966) scale(73.8005 252.439)">
<stop stop-color="white" stop-opacity="0.7"/>
<stop offset="1" stop-color="white" stop-opacity="0"/>
</radialGradient>
<radialGradient id="paint25_radial" cx="0" cy="0" r="1" gradientUnits="userSpaceOnUse" gradientTransform="translate(169.641 174.283) rotate(59.6966) scale(73.8005 252.439)">
<stop stop-color="white" stop-opacity="0.7"/>
<stop offset="1" stop-color="white" stop-opacity="0"/>
</radialGradient>
<radialGradient id="paint26_radial" cx="0" cy="0" r="1" gradientUnits="userSpaceOnUse" gradientTransform="translate(169.641 174.283) rotate(59.6966) scale(73.8005 252.439)">
<stop stop-color="white" stop-opacity="0.7"/>
<stop offset="1" stop-color="white" stop-opacity="0"/>
</radialGradient>
<radialGradient id="paint27_radial" cx="0" cy="0" r="1" gradientUnits="userSpaceOnUse" gradientTransform="translate(169.641 174.283) rotate(59.6966) scale(73.8005 252.439)">
<stop stop-color="white" stop-opacity="0.7"/>
<stop offset="1" stop-color="white" stop-opacity="0"/>
</radialGradient>
<radialGradient id="paint28_radial" cx="0" cy="0" r="1" gradientUnits="userSpaceOnUse" gradientTransform="translate(169.641 174.283) rotate(59.6966) scale(73.8005 252.439)">
<stop stop-color="white" stop-opacity="0.7"/>
<stop offset="1" stop-color="white" stop-opacity="0"/>
</radialGradient>
<radialGradient id="paint29_radial" cx="0" cy="0" r="1" gradientUnits="userSpaceOnUse" gradientTransform="translate(169.641 174.283) rotate(59.6966) scale(73.8005 252.439)">
<stop stop-color="white" stop-opacity="0.7"/>
<stop offset="1" stop-color="white" stop-opacity="0"/>
</radialGradient>
<radialGradient id="paint30_radial" cx="0" cy="0" r="1" gradientUnits="userSpaceOnUse" gradientTransform="translate(169.641 174.283) rotate(59.6966) scale(73.8005 252.439)">
<stop stop-color="white" stop-opacity="0.7"/>
<stop offset="1" stop-color="white" stop-opacity="0"/>
</radialGradient>
<radialGradient id="paint31_radial" cx="0" cy="0" r="1" gradientUnits="userSpaceOnUse" gradientTransform="translate(169.641 174.283) rotate(59.6966) scale(73.8005 252.439)">
<stop stop-color="white" stop-opacity="0.7"/>
<stop offset="1" stop-color="white" stop-opacity="0"/>
</radialGradient>
<radialGradient id="paint32_radial" cx="0" cy="0" r="1" gradientUnits="userSpaceOnUse" gradientTransform="translate(169.641 174.283) rotate(59.6966) scale(73.8005 252.439)">
<stop stop-color="white" stop-opacity="0.7"/>
<stop offset="1" stop-color="white" stop-opacity="0"/>
</radialGradient>
<radialGradient id="paint33_radial" cx="0" cy="0" r="1" gradientUnits="userSpaceOnUse" gradientTransform="translate(169.641 174.283) rotate(59.6966) scale(73.8005 252.439)">
<stop stop-color="white" stop-opacity="0.7"/>
<stop offset="1" stop-color="white" stop-opacity="0"/>
</radialGradient>
<radialGradient id="paint34_radial" cx="0" cy="0" r="1" gradientUnits="userSpaceOnUse" gradientTransform="translate(169.641 174.283) rotate(59.6966) scale(73.8005 252.439)">
<stop stop-color="white" stop-opacity="0.7"/>
<stop offset="1" stop-color="white" stop-opacity="0"/>
</radialGradient>
<radialGradient id="paint35_radial" cx="0" cy="0" r="1" gradientUnits="userSpaceOnUse" gradientTransform="translate(169.641 174.283) rotate(59.6966) scale(73.8005 252.439)">
<stop stop-color="white" stop-opacity="0.7"/>
<stop offset="1" stop-color="white" stop-opacity="0"/>
</radialGradient>
<radialGradient id="paint36_radial" cx="0" cy="0" r="1" gradientUnits="userSpaceOnUse" gradientTransform="translate(350.121 161.618) rotate(59.6966) scale(88.4703 302.618)">
<stop stop-color="white" stop-opacity="0.7"/>
<stop offset="1" stop-color="white" stop-opacity="0"/>
</radialGradient>
<radialGradient id="paint37_radial" cx="0" cy="0" r="1" gradientUnits="userSpaceOnUse" gradientTransform="translate(350.121 161.618) rotate(59.6966) scale(88.4703 302.618)">
<stop stop-color="white" stop-opacity="0.7"/>
<stop offset="1" stop-color="white" stop-opacity="0"/>
</radialGradient>
<radialGradient id="paint38_radial" cx="0" cy="0" r="1" gradientUnits="userSpaceOnUse" gradientTransform="translate(350.121 161.618) rotate(59.6966) scale(88.4703 302.618)">
<stop stop-color="white" stop-opacity="0.7"/>
<stop offset="1" stop-color="white" stop-opacity="0"/>
</radialGradient>
<radialGradient id="paint39_radial" cx="0" cy="0" r="1" gradientUnits="userSpaceOnUse" gradientTransform="translate(350.121 161.618) rotate(59.6966) scale(88.4703 302.618)">
<stop stop-color="white" stop-opacity="0.7"/>
<stop offset="1" stop-color="white" stop-opacity="0"/>
</radialGradient>
<radialGradient id="paint40_radial" cx="0" cy="0" r="1" gradientUnits="userSpaceOnUse" gradientTransform="translate(350.121 161.618) rotate(59.6966) scale(88.4703 302.618)">
<stop stop-color="white" stop-opacity="0.7"/>
<stop offset="1" stop-color="white" stop-opacity="0"/>
</radialGradient>
<radialGradient id="paint41_radial" cx="0" cy="0" r="1" gradientUnits="userSpaceOnUse" gradientTransform="translate(350.121 161.618) rotate(59.6966) scale(88.4703 302.618)">
<stop stop-color="white" stop-opacity="0.7"/>
<stop offset="1" stop-color="white" stop-opacity="0"/>
</radialGradient>
<radialGradient id="paint42_radial" cx="0" cy="0" r="1" gradientUnits="userSpaceOnUse" gradientTransform="translate(350.121 161.618) rotate(59.6966) scale(88.4703 302.618)">
<stop stop-color="white" stop-opacity="0.7"/>
<stop offset="1" stop-color="white" stop-opacity="0"/>
</radialGradient>
<radialGradient id="paint43_radial" cx="0" cy="0" r="1" gradientUnits="userSpaceOnUse" gradientTransform="translate(350.121 161.618) rotate(59.6966) scale(88.4703 302.618)">
<stop stop-color="white" stop-opacity="0.7"/>
<stop offset="1" stop-color="white" stop-opacity="0"/>
</radialGradient>
<radialGradient id="paint44_radial" cx="0" cy="0" r="1" gradientUnits="userSpaceOnUse" gradientTransform="translate(350.121 161.618) rotate(59.6966) scale(88.4703 302.618)">
<stop stop-color="white" stop-opacity="0.7"/>
<stop offset="1" stop-color="white" stop-opacity="0"/>
</radialGradient>
<radialGradient id="paint45_radial" cx="0" cy="0" r="1" gradientUnits="userSpaceOnUse" gradientTransform="translate(350.121 161.618) rotate(59.6966) scale(88.4703 302.618)">
<stop stop-color="white" stop-opacity="0.7"/>
<stop offset="1" stop-color="white" stop-opacity="0"/>
</radialGradient>
<radialGradient id="paint46_radial" cx="0" cy="0" r="1" gradientUnits="userSpaceOnUse" gradientTransform="translate(350.121 161.618) rotate(59.6966) scale(88.4703 302.618)">
<stop stop-color="white" stop-opacity="0.7"/>
<stop offset="1" stop-color="white" stop-opacity="0"/>
</radialGradient>
<radialGradient id="paint47_radial" cx="0" cy="0" r="1" gradientUnits="userSpaceOnUse" gradientTransform="translate(350.121 161.618) rotate(59.6966) scale(88.4703 302.618)">
<stop stop-color="white" stop-opacity="0.7"/>
<stop offset="1" stop-color="white" stop-opacity="0"/>
</radialGradient>
<radialGradient id="paint48_radial" cx="0" cy="0" r="1" gradientUnits="userSpaceOnUse" gradientTransform="translate(350.121 161.618) rotate(59.6966) scale(88.4703 302.618)">
<stop stop-color="white" stop-opacity="0.7"/>
<stop offset="1" stop-color="white" stop-opacity="0"/>
</radialGradient>
<radialGradient id="paint49_radial" cx="0" cy="0" r="1" gradientUnits="userSpaceOnUse" gradientTransform="translate(350.121 161.618) rotate(59.6966) scale(88.4703 302.618)">
<stop stop-color="white" stop-opacity="0.7"/>
<stop offset="1" stop-color="white" stop-opacity="0"/>
</radialGradient>
<radialGradient id="paint50_radial" cx="0" cy="0" r="1" gradientUnits="userSpaceOnUse" gradientTransform="translate(350.121 161.618) rotate(59.6966) scale(88.4703 302.618)">
<stop stop-color="white" stop-opacity="0.7"/>
<stop offset="1" stop-color="white" stop-opacity="0"/>
</radialGradient>
<radialGradient id="paint51_radial" cx="0" cy="0" r="1" gradientUnits="userSpaceOnUse" gradientTransform="translate(350.121 161.618) rotate(59.6966) scale(88.4703 302.618)">
<stop stop-color="white" stop-opacity="0.7"/>
<stop offset="1" stop-color="white" stop-opacity="0"/>
</radialGradient>
<radialGradient id="paint52_radial" cx="0" cy="0" r="1" gradientUnits="userSpaceOnUse" gradientTransform="translate(350.121 161.618) rotate(59.6966) scale(88.4703 302.618)">
<stop stop-color="white" stop-opacity="0.7"/>
<stop offset="1" stop-color="white" stop-opacity="0"/>
</radialGradient>
<radialGradient id="paint53_radial" cx="0" cy="0" r="1" gradientUnits="userSpaceOnUse" gradientTransform="translate(350.121 161.618) rotate(59.6966) scale(88.4703 302.618)">
<stop stop-color="white" stop-opacity="0.7"/>
<stop offset="1" stop-color="white" stop-opacity="0"/>
</radialGradient>
</defs>
</svg>
